<mxfile host="app.diagrams.net" modified="2023-10-14T13:55:25.768Z" agent="Mozilla/5.0 (Windows NT 10.0; Win64; x64) AppleWebKit/537.36 (KHTML, like Gecko) Chrome/117.0.0.0 Safari/537.36 Edg/117.0.2045.60" version="22.0.4" etag="7ym3D8aAJD2nXDJGaoAh" type="github">
  <diagram name="第 1 页" id="Vr7oSZ1j0iLX17CeGQLo">
    <mxGraphModel>
      <root>
        <mxCell id="0" />
        <mxCell id="1" parent="0" />
      </root>
    </mxGraphModel>
  </diagram>
</mxfile>
